<svg width="800" height="800" viewBox="0 0 800 800" fill="none" xmlns="http://www.w3.org/2000/svg">
<path d="M619.666 196.333C578.666 177.333 535 163.333 489 155.333C483.333 165.333 476.666 178.999 472.333 189.999C423.666 182.666 375.333 182.666 327.667 189.999C323 178.999 316.333 165.333 310.667 155.333C264.667 163.333 221 177.333 180 196.333C97.3335 320.999 75.0001 442.667 86.0001 562.334C141 603.334 194 628 246.333 644.334C259.333 626.667 270.667 607.667 280.667 588C261.667 581 243.667 572 226.667 561.667C231.333 558.334 235.667 554.667 240 551.334C344.333 600 457.333 600 560.333 551.334C564.666 555 569 558.334 573.666 561.667C556.666 572 538.333 580.667 519.666 588C529.666 607.667 541 626.667 554 644.334C606.333 628 659.666 603.334 714.333 562.334C727.333 423.334 692 302.999 620.333 196.333H619.666ZM294.667 489C263.333 489 237.667 460 237.667 424.334C237.667 388.667 262.667 359.667 294.667 359.667C326.667 359.667 352 388.667 351.666 424.334C351.666 459.667 326.667 489 294.667 489ZM505 489C473.666 489 448 460 448 424.334C448 388.667 473 359.667 505 359.667C537 359.667 562.333 388.667 562 424.334C562 459.667 537 489 505 489Z" fill="#4CF366"/>
</svg>
